<svg width="26" height="26" viewBox="0 0 26 26" fill="none" xmlns="http://www.w3.org/2000/svg">
<g clip-path="url(#clip0)">
<path d="M18 17.759V21.125C18 22.159 17.159 23 16.125 23H4.875C3.841 23 3 22.159 3 21.125V9.875C3 8.841 3.841 8 4.875 8H8.304L11.305 5H4.875C2.182 5 0 7.182 0 9.875V21.125C0 23.818 2.182 26 4.875 26H16.125C18.818 26 21 23.818 21 21.125V14.758L18 17.759Z" fill="#105118"/>
<path d="M22.5812 6.5147e-06H12.3222C10.4362 0.00200651 10.5672 0.510006 11.5622 1.50401L14.7822 4.72401L9.26218 10.243C8.11718 11.387 8.11818 13.241 9.26218 14.384L11.6722 16.795C12.8162 17.936 14.6682 17.937 15.8122 16.794L21.3322 11.274L24.4922 14.434C25.5932 15.534 25.9992 15.563 25.9992 13.677L26.0002 3.41901C25.9992 -0.0179937 26.0242 -0.000993485 22.5812 6.5147e-06Z" fill="#105118"/>
</g>
<defs>
<clipPath id="clip0">
<rect width="26" height="26" fill="white"/>
</clipPath>
</defs>
</svg>
