<svg width="25" height="27" viewBox="0 0 25 27" fill="none" xmlns="http://www.w3.org/2000/svg">
<path d="M21.875 20.0739C21.875 21.5724 20.7094 22.7866 19.2708 22.7866H5.72917C4.29115 22.7866 3.125 21.5724 3.125 20.0739V5.96804C3.125 4.46956 4.29115 3.25537 5.72917 3.25537H19.2708C20.7094 3.25537 21.875 4.46956 21.875 5.96804V20.0739Z" fill="#989898"/>
<path d="M17.2031 13.8887C16.8646 13.4004 16.375 13.0641 15.7448 12.885C15.7448 12.885 16.276 12.6843 16.7552 11.9356C17.0417 11.4582 17.1875 10.8831 17.1875 10.2103C17.1875 9.04389 16.7812 8.14871 15.9687 7.53564C15.1562 6.92258 14.2396 6.51025 12.6823 6.51025H7.8125V19.5311H13.2448C14.7187 19.5202 15.8281 19.1893 16.5833 18.5545C17.3333 17.9089 17.7083 16.954 17.7083 15.6791C17.7083 14.9738 17.5417 14.377 17.2031 13.8887ZM10.9375 8.68039C10.9375 8.68039 13.1094 8.68039 13.151 8.68039C13.9427 8.68039 14.5833 9.34771 14.5833 10.1724C14.5833 10.997 13.9427 11.6643 13.151 11.6643C13.1094 11.6643 10.9375 11.6643 10.9375 11.6643V8.68039ZM13.5417 17.3609H10.9375V14.1057H13.5417C14.4062 14.1057 15.1042 14.8327 15.1042 15.7333C15.1042 16.634 14.4062 17.3609 13.5417 17.3609Z" fill="black"/>
</svg>
